<svg width="1024" height="1024" viewBox="0 0 1024 1024" fill="none" xmlns="http://www.w3.org/2000/svg">
<path d="M510.747 389.885L489.871 423.825L629.328 648.294H711.165L542.48 376L510.747 389.885Z" fill="white"/>
<path fill-rule="evenodd" clip-rule="evenodd" d="M522.438 502.505L481.52 436.938L390.497 582.727H348.743L312 645.979H428.91L452.292 615.125L470.664 645.979H590.079L601.77 628.238L560.852 565.757L529.954 615.125L489.871 551.872L522.438 502.505ZM353.754 606.832H373.378L363.148 625.924H342.689L353.754 606.832Z" fill="white"/>
<path d="M441.436 479.364L428.91 455.451H348.743L403.023 544.93L441.436 479.364Z" fill="white"/>
<path d="M657.72 544.93L712 455.451H630.998L615.967 475.507L657.72 544.93Z" fill="white"/>
</svg>
